<svg width="22" height="22" viewBox="0 0 22 22" fill="none" xmlns="http://www.w3.org/2000/svg">
<g id="bell">
<path id="Union" fill-rule="evenodd" clip-rule="evenodd" d="M11 1.83337C9.13871 1.83337 7.65328 2.49867 6.6442 3.6491C5.65031 4.78221 5.19444 6.29806 5.19444 7.88337V9.47226C5.19444 9.69596 5.09407 9.96507 4.83235 10.3123C4.58148 10.6452 4.25581 10.9574 3.89604 11.3022L3.83507 11.3607C3.2083 11.962 2.75 12.833 2.75 13.8723C2.75 15.2809 3.84838 16.5 5.2963 16.5H16.7037C18.1516 16.5 19.25 15.2809 19.25 13.8723C19.25 12.833 18.7917 11.962 18.1649 11.3607L18.104 11.3022L18.1039 11.3022C17.7442 10.9573 17.4185 10.6452 17.1676 10.3123C16.9059 9.96507 16.8056 9.69596 16.8056 9.47226V7.88337C16.8056 6.29806 16.3497 4.78221 15.3558 3.6491C14.3467 2.49867 12.8613 1.83337 11 1.83337Z" fill="#64748B"/>
<path id="Vector (Stroke)" fill-rule="evenodd" clip-rule="evenodd" d="M8.65608 17.5721C9.07655 17.2901 9.64599 17.4024 9.92796 17.8228C10.0191 17.9587 10.1606 18.0868 10.3509 18.1817C10.5414 18.2766 10.7657 18.3301 11 18.3301C11.2342 18.3301 11.4585 18.2766 11.649 18.1817C11.8393 18.0868 11.9809 17.9587 12.072 17.8228C12.354 17.4024 12.9234 17.2901 13.3439 17.5721C13.7643 17.854 13.8766 18.4235 13.5946 18.8439C13.3131 19.2637 12.9198 19.5968 12.4666 19.8226C12.0136 20.0483 11.5083 20.1635 11 20.1635C10.4916 20.1635 9.98632 20.0483 9.53334 19.8226C9.08014 19.5968 8.68684 19.2637 8.40532 18.8439C8.12335 18.4235 8.23562 17.854 8.65608 17.5721Z" fill="#64748B"/>
</g>
</svg>
