<svg width="22" height="22" viewBox="0 0 22 22" fill="none" xmlns="http://www.w3.org/2000/svg">
<g id="mdi:warning-octagon">
<path id="Rectangle 14 (Stroke)" fill-rule="evenodd" clip-rule="evenodd" d="M3 7C3 4.79086 4.79086 3 7 3H15C17.2091 3 19 4.79086 19 7V15C19 17.2091 17.2091 19 15 19H7C4.79086 19 3 17.2091 3 15V7ZM7 4.6C5.67452 4.6 4.6 5.67452 4.6 7V15C4.6 16.3255 5.67452 17.4 7 17.4H15C16.3255 17.4 17.4 16.3255 17.4 15V7C17.4 5.67452 16.3255 4.6 15 4.6H7Z" fill="#64748B"/>
<path id="Vector (Stroke)" fill-rule="evenodd" clip-rule="evenodd" d="M11.0072 7C11.449 7 11.8072 7.35817 11.8072 7.8V11C11.8072 11.4418 11.449 11.8 11.0072 11.8C10.5654 11.8 10.2072 11.4418 10.2072 11V7.8C10.2072 7.35817 10.5654 7 11.0072 7ZM10.1992 14.2C10.1992 13.7582 10.5574 13.4 10.9992 13.4H11.0072C11.449 13.4 11.8072 13.7582 11.8072 14.2C11.8072 14.6418 11.449 15 11.0072 15H10.9992C10.5574 15 10.1992 14.6418 10.1992 14.2Z" fill="#64748B"/>
</g>
</svg>
