<svg width="22" height="22" viewBox="0 0 22 22" fill="none" xmlns="http://www.w3.org/2000/svg">
<g id="monitoring">
<path id="Ellipse 9 (Stroke)" d="M9.66665 5.56587V4.98852L9.09522 5.071C8.07805 5.21782 7.10203 5.59016 6.24062 6.16573C5.10318 6.92574 4.21666 8.00598 3.69315 9.26983C3.16964 10.5337 3.03267 11.9244 3.29955 13.2661C3.56643 14.6078 4.22518 15.8402 5.19249 16.8075C6.15981 17.7749 7.39224 18.4336 8.73394 18.7005C10.0756 18.9674 11.4664 18.8304 12.7302 18.3069C13.9941 17.7834 15.0743 16.8969 15.8343 15.7594C16.4099 14.898 16.7822 13.922 16.929 12.9048L17.0115 12.3334H16.4342H11C10.2636 12.3334 9.66665 11.7364 9.66665 11.0001V5.56587ZM10.5 11.0001V11.5001H11H16.5C17.2288 11.5001 17.8707 12.1046 17.7728 12.883C17.6233 14.0734 17.1987 15.2175 16.5272 16.2224C15.6756 17.4969 14.4652 18.4902 13.0491 19.0768C11.633 19.6634 10.0747 19.8168 8.57137 19.5178C7.06801 19.2188 5.6871 18.4807 4.60324 17.3968C3.51938 16.3129 2.78127 14.932 2.48223 13.4287C2.1832 11.9253 2.33667 10.3671 2.92325 8.95093C3.50983 7.5348 4.50317 6.32442 5.77765 5.47284C6.78255 4.80138 7.92665 4.37678 9.11706 4.22719C9.89539 4.12939 10.5 4.7712 10.5 5.50006V11.0001Z" stroke="#64748B"/>
<path id="Ellipse 10 (Stroke)" d="M18.2564 8.74997H18.848L18.7494 8.16664C18.6744 7.72301 18.5496 7.28817 18.3766 6.87054C18.0751 6.14258 17.6331 5.48115 17.076 4.924C16.5188 4.36685 15.8574 3.92489 15.1295 3.62336C14.7118 3.45037 14.277 3.32555 13.8334 3.25056L13.25 3.15196V3.74357V8.24997V8.74997H13.75L18.2564 8.74997ZM12.4167 3.66664C12.4167 2.93884 13.023 2.29025 13.8062 2.40292C14.369 2.48386 14.9207 2.63491 15.4484 2.85346C16.2774 3.19687 17.0307 3.70021 17.6653 4.33474C18.2998 4.96928 18.8031 5.72258 19.1465 6.55164C19.3651 7.07926 19.5161 7.631 19.5971 8.19376C19.7097 8.97702 19.0612 9.58331 18.3334 9.58331L12.925 9.58331C12.6443 9.58331 12.4167 9.35572 12.4167 9.07497V3.66664Z" stroke="#64748B"/>
</g>
</svg>
