<svg width="22" height="22" viewBox="0 0 22 22" fill="none" xmlns="http://www.w3.org/2000/svg">
<g id="Frame" clip-path="url(#clip0_69_136)">
<path id="Vector" d="M2.75 4.58329C2.75 4.34018 2.84658 4.10702 3.01849 3.93511C3.19039 3.7632 3.42355 3.66663 3.66667 3.66663H18.3333C18.5764 3.66663 18.8096 3.7632 18.9815 3.93511C19.1534 4.10702 19.25 4.34018 19.25 4.58329V13.75C19.25 13.9931 19.1534 14.2262 18.9815 14.3981C18.8096 14.57 18.5764 14.6666 18.3333 14.6666H3.66667C3.42355 14.6666 3.19039 14.57 3.01849 14.3981C2.84658 14.2262 2.75 13.9931 2.75 13.75V4.58329Z" stroke="#64748B" stroke-width="1.5" stroke-linecap="round" stroke-linejoin="round"/>
<path id="Vector_2" d="M6.41797 18.3335H15.5846" stroke="#64748B" stroke-width="1.5" stroke-linecap="round" stroke-linejoin="round"/>
<path id="Vector_3" d="M8.25 14.6666V18.3333" stroke="#64748B" stroke-width="1.5" stroke-linecap="round" stroke-linejoin="round"/>
<path id="Vector_4" d="M13.75 14.6666V18.3333" stroke="#64748B" stroke-width="1.5" stroke-linecap="round" stroke-linejoin="round"/>
<path id="Vector_5" d="M8.25 11V7.33337" stroke="#64748B" stroke-width="1.5" stroke-linecap="round" stroke-linejoin="round"/>
<path id="Vector_6" d="M11 11V10.0834" stroke="#64748B" stroke-width="1.5" stroke-linecap="round" stroke-linejoin="round"/>
<path id="Vector_7" d="M13.75 11V9.16663" stroke="#64748B" stroke-width="1.5" stroke-linecap="round" stroke-linejoin="round"/>
<path id="Vector_8" d="M11 11V10.0834" stroke="#64748B" stroke-width="1.5" stroke-linecap="round" stroke-linejoin="round"/>
</g>
<defs>
<clipPath id="clip0_69_136">
<rect width="22" height="22" fill="white"/>
</clipPath>
</defs>
</svg>
