<svg width="22" height="22" viewBox="0 0 22 22" fill="none" xmlns="http://www.w3.org/2000/svg">
<g id="briefcase">
<g id="Group">
<path id="Vector" d="M17.4167 5.66663H4.58333C3.1566 5.66663 2 6.82322 2 8.24996V16.5C2 17.9267 3.1566 19.0833 4.58333 19.0833H17.4167C18.8434 19.0833 20 17.9267 20 16.5V8.24996C20 6.82322 18.8434 5.66663 17.4167 5.66663Z" stroke="#64748B" stroke-width="1.5" stroke-linecap="round" stroke-linejoin="round"/>
<path id="Vector_2" d="M7.33331 6.41667V4.58333C7.33331 4.0971 7.52647 3.63079 7.87028 3.28697C8.2141 2.94315 8.68042 2.75 9.16665 2.75H12.8333C13.3195 2.75 13.7859 2.94315 14.1297 3.28697C14.4735 3.63079 14.6666 4.0971 14.6666 4.58333V6.41667" stroke="#64748B" stroke-width="1.5" stroke-linecap="round" stroke-linejoin="round"/>
<path id="Vector_3" d="M11 11V11.0092" stroke="#64748B" stroke-width="2" stroke-linecap="round" stroke-linejoin="round"/>
<path id="Vector_4" d="M2.75 11.9166C5.30895 13.2061 8.13453 13.8778 11 13.8778C13.8655 13.8778 16.6911 13.2061 19.25 11.9166" stroke="#64748B" stroke-width="1.5" stroke-linecap="round" stroke-linejoin="round"/>
</g>
</g>
</svg>
