<svg width="22" height="22" viewBox="0 0 22 22" fill="none" xmlns="http://www.w3.org/2000/svg">
<g id="Frame" clip-path="url(#clip0_69_148)">
<path id="Vector" d="M2.75 4.58333C2.75 4.0971 2.94315 3.63079 3.28697 3.28697C3.63079 2.94315 4.0971 2.75 4.58333 2.75H17.4167C17.9029 2.75 18.3692 2.94315 18.713 3.28697C19.0568 3.63079 19.25 4.0971 19.25 4.58333V17.4167C19.25 17.9029 19.0568 18.3692 18.713 18.713C18.3692 19.0568 17.9029 19.25 17.4167 19.25H4.58333C4.0971 19.25 3.63079 19.0568 3.28697 18.713C2.94315 18.3692 2.75 17.9029 2.75 17.4167V4.58333Z" stroke="#64748B" stroke-width="1.5" stroke-linecap="round" stroke-linejoin="round"/>
<path id="Vector_2" d="M8.25 13.75V15.5833" stroke="#64748B" stroke-width="1.5" stroke-linecap="round" stroke-linejoin="round"/>
<path id="Vector_3" d="M11 10.0834V15.5834" stroke="#64748B" stroke-width="1.5" stroke-linecap="round" stroke-linejoin="round"/>
<path id="Vector_4" d="M13.75 11.9166V15.5833" stroke="#64748B" stroke-width="1.5" stroke-linecap="round" stroke-linejoin="round"/>
</g>
<defs>
<clipPath id="clip0_69_148">
<rect width="22" height="22" fill="white"/>
</clipPath>
</defs>
</svg>
