<svg width="22" height="22" viewBox="0 0 22 22" fill="none" xmlns="http://www.w3.org/2000/svg">
<g id="Location">
<g id="Group 33488">
<path id="Exclude" fill-rule="evenodd" clip-rule="evenodd" d="M14.5024 19.837C14.2008 20.0545 13.7987 20.0542 13.4971 19.8367L13.4949 19.8351L13.49 19.8315L13.4737 19.8196C13.46 19.8095 13.4406 19.7952 13.4159 19.7767C13.3666 19.7397 13.2961 19.6862 13.2075 19.6169C13.0302 19.4784 12.78 19.2768 12.4811 19.0192C11.8845 18.5052 11.0872 17.7626 10.2873 16.849C8.71819 15.0569 6.99997 12.4496 6.99997 9.52734C6.99997 7.54526 7.72725 5.63576 9.03476 4.22102C10.3437 2.80473 12.1287 2 14 2C15.8712 2 17.6562 2.80473 18.9652 4.22102C20.2727 5.63576 21 7.54526 21 9.52734C21 12.4496 19.2817 15.0569 17.7127 16.849C16.9128 17.7626 16.1155 18.5052 15.5189 19.0192C15.2199 19.2768 14.9697 19.4784 14.7925 19.6169C14.7038 19.6862 14.6333 19.7397 14.584 19.7767C14.5593 19.7952 14.54 19.8095 14.5262 19.8196L14.5099 19.8315L14.505 19.8351L14.5034 19.8363L14.5024 19.837ZM11.375 9.20007C11.375 7.70888 12.5502 6.50004 14 6.50004C15.4497 6.50004 16.625 7.70888 16.625 9.20007C16.625 10.6912 15.4497 11.9001 14 11.9001C12.5502 11.9001 11.375 10.6912 11.375 9.20007Z" fill="#64748B"/>
</g>
</g>
</svg>
