<svg width="18" height="18" viewBox="0 0 18 18" fill="none" xmlns="http://www.w3.org/2000/svg">
<g id="log out" clip-path="url(#clip0_69_170)">
<g id="Black">
<path id="Vector" d="M1.00195 0.066824C0.622266 0.203934 0.302344 0.492214 0.119531 0.861355L0.0175781 1.07229V8.24417V15.416L0.130078 15.6446C0.193359 15.7711 0.291797 15.9293 0.348047 15.9996C0.594141 16.2949 0.703125 16.3406 3.2625 17.1949L5.67773 18.0035L6.04688 17.993C6.38438 17.9824 6.44063 17.9719 6.65508 17.8664C6.93984 17.7258 7.20352 17.4762 7.32656 17.2336C7.47774 16.9383 7.52344 16.6922 7.52344 16.2V15.75H8.9086C10.2938 15.75 10.2973 15.75 10.5785 15.6621C11.2676 15.4442 11.8195 14.8324 11.9707 14.1153C12.0129 13.9184 12.0234 13.5106 12.0234 12.041C12.0234 10.2129 12.0234 10.2094 11.9461 10.0547C11.8336 9.84026 11.7141 9.76292 11.4715 9.74534C11.2992 9.73479 11.2465 9.74534 11.1445 9.81565C11.0777 9.86135 10.9863 9.95276 10.9441 10.016L10.8633 10.1356V11.9532C10.8633 13.9957 10.8633 14.0028 10.6172 14.2805C10.5363 14.3719 10.4027 14.4739 10.2938 14.5231C10.1109 14.6074 10.0898 14.6074 8.81719 14.618L7.52344 14.6285V8.76096C7.52344 4.943 7.50938 2.82659 7.48828 2.70354C7.41797 2.3344 7.17188 1.96175 6.85195 1.73675C6.76758 1.67698 6.39492 1.52932 5.9625 1.38167L5.2207 1.12854L7.66406 1.13557L10.1074 1.1426L10.2938 1.22698C10.4027 1.2762 10.5363 1.37815 10.6172 1.46956C10.8633 1.74729 10.8633 1.75432 10.8633 3.7969V5.61448L10.9441 5.73401C10.9863 5.79729 11.0777 5.8887 11.1445 5.9344C11.2465 6.00471 11.2992 6.01526 11.4715 6.00471C11.7141 5.98714 11.8336 5.90979 11.9461 5.69534C12.0234 5.54065 12.0234 5.53714 12.0234 3.70901C12.0234 2.23948 12.0129 1.83167 11.9707 1.63479C11.8195 0.917604 11.2676 0.305887 10.5785 0.0879173L10.2973 2.67029e-05H5.7375C1.42734 0.00354385 1.16719 0.0070591 1.00195 0.066824ZM3.84961 1.90901C5.08711 2.32386 6.13477 2.67893 6.18047 2.70354C6.37383 2.80901 6.36328 2.36956 6.36328 9.73479C6.36328 13.8762 6.34922 16.5516 6.33164 16.6043C6.27539 16.7485 6.15234 16.8399 6.01523 16.8399C5.94492 16.8399 4.86914 16.4989 3.60703 16.0805C1.87031 15.5004 1.3043 15.2965 1.24453 15.2367C1.20234 15.191 1.16016 15.0926 1.14609 15.0188C1.10742 14.7832 1.12148 1.57503 1.16016 1.4344C1.20586 1.2762 1.34297 1.16018 1.49063 1.16018C1.55039 1.16018 2.61211 1.49768 3.84961 1.90901Z" fill="#E22218"/>
<path id="Vector_2" d="M14.3156 4.57031C14.1469 4.67227 14.0625 4.83398 14.0625 5.05547C14.0625 5.15742 14.0801 5.27695 14.1012 5.31914C14.1223 5.36133 14.5687 5.82891 15.0926 6.35273L16.0488 7.3125H13.0781H10.1074L9.98086 7.39687C9.65742 7.61836 9.65742 8.13164 9.98086 8.35312L10.1074 8.4375H13.0781H16.0488L15.0926 9.39375C14.5687 9.92109 14.1223 10.3887 14.1012 10.4309C14.0801 10.473 14.0625 10.5926 14.0625 10.6945C14.0625 11.0355 14.277 11.25 14.618 11.25C14.7199 11.25 14.8395 11.2324 14.8816 11.2113C14.9906 11.1551 17.8875 8.26523 17.9508 8.14922C17.9789 8.09648 18 7.97344 18 7.875C18 7.77656 17.9789 7.65352 17.9508 7.60078C17.8875 7.48477 14.9906 4.59492 14.8816 4.53867C14.7551 4.47539 14.4457 4.49297 14.3156 4.57031Z" fill="#E22218"/>
</g>
</g>
<defs>
<clipPath id="clip0_69_170">
<rect width="18" height="18" fill="white"/>
</clipPath>
</defs>
</svg>
