<svg width="22" height="22" viewBox="0 0 22 22" fill="none" xmlns="http://www.w3.org/2000/svg">
<g id="nazad">
<path id="Exclude" fill-rule="evenodd" clip-rule="evenodd" d="M15.6667 1.83337C18.1519 1.83337 20.1667 3.84809 20.1667 6.33337V15.3334C20.1667 17.8187 18.1519 19.8334 15.6667 19.8334H6.66666C4.18138 19.8334 2.16666 17.8187 2.16666 15.3334V6.33337C2.16666 3.84809 4.18138 1.83337 6.66666 1.83337H15.6667ZM11.8031 6.59698C11.4516 6.24551 10.8817 6.24551 10.5303 6.59698L6.93026 10.197C6.76148 10.3658 6.66666 10.5947 6.66666 10.8334C6.66666 11.0721 6.76148 11.301 6.93026 11.4698L10.5303 15.0698C10.8817 15.4212 11.4516 15.4212 11.8031 15.0698C12.1545 14.7183 12.1545 14.1484 11.8031 13.797L9.73945 11.7334H14.7667C15.2637 11.7334 15.6667 11.3304 15.6667 10.8334C15.6667 10.3363 15.2637 9.93337 14.7667 9.93337H9.73945L11.8031 7.86977C12.1545 7.5183 12.1545 6.94845 11.8031 6.59698Z" fill="#64748B"/>
</g>
</svg>
